<mxfile host="app.diagrams.net" modified="2023-09-13T13:58:42.955Z" agent="Mozilla/5.0 (Macintosh; Intel Mac OS X 10.15; rv:109.0) Gecko/20100101 Firefox/117.0" version="21.7.5" etag="WHCQNYSFitUQBxCqyux6" type="github">
  <diagram name="Page-1" id="vYj47vcWlW0l4-8ChMy9">
    <mxGraphModel>
      <root>
        <mxCell id="0" />
        <mxCell id="1" parent="0" />
      </root>
    </mxGraphModel>
  </diagram>
</mxfile>
